<?xml version="1.0" encoding="utf-8"?>
<!-- Generator: Adobe Illustrator 24.0.2, SVG Export Plug-In . SVG Version: 6.00 Build 0)  -->
<svg version="1.1" id="Capa_1" xmlns="http://www.w3.org/2000/svg" xmlns:xlink="http://www.w3.org/1999/xlink" x="0px" y="0px"
	 viewBox="0 0 1984.8 503.9" style="enable-background:new 0 0 1984.8 503.9;" xml:space="preserve">
<style type="text/css">
	.st0{fill:#7072B3;}
	.st1{fill:#62C2D2;}
	.st2{fill:#E1A3C5;}
</style>
<g>
	<g>
		<path class="st0" d="M543.7,160.1c0-2.9,1-5.1,2.9-6.5c1.9-1.4,4.6-2.8,8.2-4.1l31.8-11.1c0.5-0.1,0.9-0.1,1.3-0.1
			c0.4,0,0.8,0,1.2,0c3.5,0,5.8,1,6.9,3c1.2,2,1.8,4.7,1.8,7.9l-0.1,38.5h19.2c3,0,5.4,0.9,7.3,2.7c1.9,1.8,2.8,4.4,2.8,8v27.1
			c0,3.9-0.9,6.8-2.8,8.6c-1.9,1.8-4.3,2.7-7.3,2.7h-19.2l0.1,118.3c0,3.6-1,6.2-3.1,8.1c-2.1,1.8-4.9,2.7-8.6,2.7h-31.7
			c-7.2,0-10.8-3.6-10.8-10.8l-0.1-118.3h-14.4c-7.2,0-10.8-3.8-10.8-11.4v-27.1c0-7.1,3.6-10.7,10.8-10.7h14.4L543.7,160.1z"/>
		<path class="st0" d="M797.2,344.5c-8.2,7.6-17.5,13.5-27.8,17.7c-10.3,4.3-21.2,6.4-32.7,6.4c-12.8,0-24.9-2.3-36.3-7
			c-11.4-4.7-21.4-11.1-30-19.4c-8.6-8.3-15.4-18-20.5-29.2c-5-11.2-7.6-23.4-7.6-36.6c0-8.2,1-16.2,3-23.9c2-7.7,4.9-14.9,8.6-21.7
			c3.7-6.7,8.2-12.9,13.5-18.6c5.3-5.7,11.2-10.5,17.7-14.5c6.5-4,13.6-7.1,21.3-9.4c7.7-2.2,15.7-3.4,24.3-3.4
			c7.8,0,15.3,1,22.6,3.1c7.3,2.1,14.1,5,20.5,8.7c6.4,3.7,12.3,8.2,17.6,13.5c5.3,5.2,9.9,11,13.7,17.2c3.8,6.2,6.8,12.9,8.9,19.9
			c2.1,7.1,3.2,14.3,3.2,21.8c0,4.9-0.1,8.8-0.2,11.9c-0.1,3.1-0.9,5.5-2.2,7.4c-1.3,1.8-3.5,3.1-6.5,3.8c-3,0.7-7.5,1.1-13.4,1.1
			H694c0.9,6,2.8,11,5.7,15c2.8,4,6.1,7.2,9.9,9.6c3.7,2.4,7.7,4.1,11.9,5.1c4.2,1,8.2,1.5,11.9,1.5c3.4,0,6.8-0.4,10.4-1.1
			c3.6-0.7,7-1.6,10.3-2.8c3.3-1.2,6.4-2.5,9.1-4.1c2.8-1.5,5-3.2,6.7-4.8c1.5-1.2,2.8-2.1,3.9-2.7c1.1-0.6,2.2-0.9,3.4-0.9
			c1.2,0,2.5,0.4,3.7,1.3c1.3,0.8,2.7,2.1,4.3,3.6l14.9,16.8c1,1.2,1.7,2.3,2,3.3c0.3,1,0.4,2,0.4,3c0,1.9-0.5,3.5-1.5,4.8
			C799.8,342.3,798.6,343.5,797.2,344.5z M729.7,227.8c-3.6,0-7.2,0.7-10.6,2.2c-3.4,1.4-6.6,3.4-9.6,5.8c-3,2.4-5.7,5.2-8.1,8.3
			s-4.3,6.2-5.8,9.4h71.6c-2-3.6-4.1-7-6.4-10.1c-2.3-3.1-4.9-5.8-7.8-8.1c-2.9-2.3-6.3-4.2-10.1-5.5
			C739.2,228.4,734.8,227.8,729.7,227.8z"/>
		<path class="st0" d="M960.5,311c1.3-0.9,2.5-1.5,3.7-1.8c1.2-0.2,2.1-0.4,2.7-0.4c1.6,0,3,0.3,4.3,1c1.3,0.7,2.7,2.1,4.1,4.2
			l15.7,23.7c0.5,0.7,0.9,1.6,1.3,2.5c0.4,0.9,0.6,1.7,0.6,2.2c0,2.2-0.7,3.9-2,5.3c-1.4,1.4-2.8,2.5-4.4,3.6
			c-7.7,5.3-16.1,9.6-25.2,12.8c-9.1,3.2-18.8,4.8-28.9,4.8c-8.4,0-16.5-1.1-24.3-3.2c-7.8-2.1-15.1-5.2-21.8-9.2
			c-6.7-4-12.9-8.7-18.5-14.3c-5.6-5.6-10.4-11.8-14.3-18.6c-3.9-6.8-7-14.2-9.2-22.1c-2.2-7.9-3.3-16.1-3.3-24.7
			c0-8.6,1.1-16.9,3.3-24.8c2.2-7.9,5.3-15.3,9.2-22.1s8.7-12.9,14.3-18.5c5.6-5.6,11.8-10.3,18.5-14.2c6.7-3.9,14-7,21.8-9.1
			c7.8-2.1,15.9-3.2,24.3-3.2c10.2,0,19.6,1.4,28.2,4.1c8.6,2.7,16.8,6.7,24.3,12.1l-0.4-0.4c2.1,1.2,3.7,2.6,4.9,4.3
			s1.8,3.7,1.8,6.1c0,1.7-0.6,3.4-1.7,5.2l-12.5,21.2c-2.6,4.6-5.8,6.9-9.5,6.9c-0.8,0-1.9-0.2-3.1-0.6c-1.2-0.4-2.6-1.1-4.1-2.2
			c-4.1-2.7-8.5-4.9-13.2-6.7c-4.7-1.7-9.7-2.6-15.1-2.6c-5.9,0-11.3,1.2-16.3,3.6c-5,2.4-9.2,5.6-12.7,9.7s-6.2,8.9-8.2,14.3
			c-2,5.4-2.9,11.1-2.9,17.1c0,6.2,1,11.9,2.9,17.3c2,5.4,4.7,10,8.2,13.9c3.5,3.9,7.7,7,12.7,9.3c5,2.3,10.4,3.4,16.3,3.4
			c5.3,0,10.3-0.9,15-2.8C951.8,316.3,956.3,313.9,960.5,311z"/>
		<path class="st1" d="M1052.6,205.8c2.6-3.3,5.4-6.2,8.4-8.8c3-2.6,6.3-4.7,10-6.5c3.7-1.8,7.9-3.1,12.5-4.1
			c4.7-0.9,10.1-1.4,16.3-1.4c10.5,0,20,2,28.7,6c8.6,4,16.1,9.4,22.3,16.3c6.2,6.9,11,14.9,14.4,24.2c3.4,9.3,5.1,19.2,5.1,29.7
			v95.2c0,3.2-0.8,5.6-2.5,7.2c-1.6,1.6-3.7,2.4-6.2,2.4h-10.4c-3.5,0-5.7-0.7-6.7-2.1c-1-1.4-1.5-3.7-1.5-7v-95.6
			c0-5.6-1-11.3-2.9-17.2c-1.9-5.8-4.8-11.1-8.6-15.9c-3.8-4.8-8.5-8.6-14.2-11.6c-5.7-3-12.2-4.5-19.6-4.5c-5.3,0-10.7,1-16.1,2.9
			c-5.4,1.9-10.3,4.7-14.6,8.5c-4.3,3.7-7.9,8.4-10.6,13.9c-2.7,5.5-4.1,11.8-4.1,18.9v103.6c0,4.1-2.1,6.2-6.2,6.2H1032
			c-4.4,0-6.6-2.1-6.6-6.2V141c0-1.9,0.6-3.4,1.8-4.5c1.2-1.1,2.7-1.7,4.3-1.7h14.6c2,0,3.5,0.6,4.7,1.8c1.2,1.2,1.8,2.7,1.8,4.3
			V205.8z"/>
		<path class="st1" d="M1336.4,325.1c0.8-0.7,1.8-1.4,2.7-2.1c1-0.7,2-1,3-1c1.4,0,2.8,0.8,4.1,2.5c1.9,2.5,3.4,4.6,4.6,6.2
			c1.2,1.6,2.1,2.9,2.9,3.8c0.7,1,1.3,1.8,1.7,2.2c0.5,0.6,0.8,1.1,1.1,1.8s0.4,1.3,0.4,2c0,1-0.4,2.1-1.2,3.3
			c-0.8,1.2-2.2,2.5-4.1,4.1c-4,3.2-8.2,6.1-12.5,8.6s-8.9,4.8-13.7,6.7c-4.8,1.9-9.8,3.3-15.1,4.3c-5.3,1-10.9,1.5-16.8,1.5
			c-8.3,0-16.4-1.1-24.1-3.3c-7.8-2.2-15.1-5.3-21.9-9.4c-6.9-4.1-13.1-8.9-18.8-14.5c-5.7-5.6-10.5-11.8-14.6-18.6
			c-4.1-6.8-7.3-14.1-9.5-21.9c-2.2-7.8-3.4-15.9-3.4-24.3c0-8.4,1.1-16.5,3.2-24.4c2.1-7.9,5.1-15.2,9-22c3.9-6.8,8.6-13,14.1-18.6
			c5.5-5.6,11.7-10.4,18.6-14.4c6.9-4,14.3-7.1,22.3-9.3c8-2.2,16.4-3.3,25.3-3.3c7,0,14,0.8,20.9,2.4c6.9,1.6,13.5,3.9,19.9,6.9
			c6.4,3,12.3,6.8,17.9,11.3c5.6,4.5,10.5,9.6,14.9,15.4c6,8,10.4,17.2,13.3,27.5c2.9,10.3,4.3,22.1,4.1,35.5c0,4.4-2.1,6.6-6.2,6.6
			h-147.7c1.6,7.5,4.4,14.4,8.3,20.7c4,6.4,8.7,11.9,14.3,16.6c5.6,4.7,11.8,8.4,18.6,11.1c6.8,2.7,13.9,4,21.2,4
			c5.1,0,9.8-0.5,13.9-1.5c4.2-1,7.9-2.3,11.4-3.9c3.4-1.6,6.6-3.5,9.5-5.6c2.9-2.1,5.7-4.3,8.4-6.5L1336.4,325.1z M1259.6,221.3
			c-7.1,4.8-13.2,10.8-18.4,18c-5.1,7.2-8.6,15.2-10.5,23.9h126.7c-1-7.8-3.4-14.8-7.2-21.2c-3.8-6.4-8.5-11.8-14.2-16.3
			c-5.7-4.5-12.1-8-19.3-10.4c-7.1-2.5-14.6-3.7-22.2-3.7c-6.1,0-12.1,0.8-18,2.4C1270.6,215.6,1264.9,218.1,1259.6,221.3z"/>
		<path class="st1" d="M1568.4,342.2c-8,8.2-17.4,14.7-28,19.4c-10.7,4.7-22.2,7.1-34.6,7.1c-8.3,0-16.4-1.1-24.2-3.3
			c-7.8-2.2-15.1-5.3-21.9-9.4c-6.8-4.1-13-8.9-18.6-14.5c-5.6-5.6-10.4-11.8-14.5-18.7c-4.1-6.9-7.2-14.2-9.4-22
			c-2.2-7.8-3.3-15.9-3.3-24.3c0-8.4,1.1-16.5,3.3-24.3c2.2-7.8,5.3-15.1,9.4-21.9c4.1-6.8,8.9-13,14.5-18.6
			c5.6-5.6,11.8-10.4,18.6-14.4c6.8-4,14.1-7.1,21.9-9.3c7.8-2.2,15.8-3.3,24.3-3.3c12.4,0,24,2.4,34.6,7.1
			c10.7,4.7,20,11.2,28,19.4v-17.1c0-4.1,2.1-6.2,6.2-6.2h14.4c4.4,0,6.6,2.1,6.6,6.2v165.8c0,1.9-0.6,3.4-1.8,4.5
			c-1.2,1.1-2.7,1.7-4.3,1.7h-14.6c-2,0-3.5-0.6-4.7-1.8c-1.2-1.2-1.8-2.7-1.8-4.3V342.2z M1569.8,276.4c0-8.8-1.7-17.2-5-25.2
			c-3.4-8-7.9-15-13.7-21c-5.8-6-12.6-10.7-20.4-14.3c-7.8-3.6-16.1-5.3-24.9-5.3c-8.8,0-17,1.8-24.7,5.3
			c-7.7,3.6-14.4,8.3-20.2,14.3c-5.7,6-10.3,13-13.6,21c-3.3,8-5,16.4-5,25.2c0,8.7,1.7,17.1,5,25.1s7.8,15.1,13.6,21.2
			c5.7,6.1,12.5,11,20.2,14.6c7.7,3.6,15.9,5.5,24.7,5.5c8.8,0,17.1-1.8,24.9-5.5c7.8-3.6,14.6-8.5,20.4-14.6
			c5.8-6.1,10.4-13.2,13.7-21.2C1568.1,293.5,1569.8,285.1,1569.8,276.4z"/>
		<path class="st1" d="M1662.7,359.7c0,4.1-2.1,6.2-6.2,6.2h-14.4c-4.4,0-6.6-2.1-6.6-6.2V141.1c0-1.9,0.6-3.4,1.8-4.5
			c1.2-1.1,2.7-1.7,4.3-1.7h14.6c2,0,3.5,0.6,4.7,1.8c1.2,1.2,1.8,2.7,1.8,4.3V359.7z"/>
		<path class="st1" d="M1753.4,367.8c-4.3,0-8.6-0.5-13-1.5c-4.3-1-8.2-2.8-11.7-5.4c-3.5-2.6-6.3-6.1-8.5-10.5
			c-2.2-4.4-3.3-10.1-3.3-17V211.8h-16.3c-2.3,0-4.1-0.4-5.2-1.1c-1.1-0.7-1.7-2.3-1.7-4.7v-13c0-2.4,0.6-3.9,1.7-4.6
			c1.1-0.6,2.8-0.9,5.2-0.9h16.3v-29.9c0-1.6,0.3-2.7,1-3.4c0.7-0.7,1.8-1.3,3.4-1.8c0.6-0.2,1.7-0.4,3.4-0.6
			c1.7-0.2,3.5-0.5,5.4-0.9c2.2-0.4,4.7-0.8,7.3-1.3c1.6-0.2,2.8-0.1,3.8,0.3c0.9,0.4,1.6,0.9,2,1.7c0.4,0.7,0.7,1.6,0.8,2.6
			c0.1,1,0.1,2,0.1,3.2v30.1h19.5c2.1,0,3.7,0.5,4.7,1.4c1,0.9,1.5,2.6,1.5,5v11.1c0,2.4-0.5,4.2-1.5,5.2c-1,1-2.5,1.5-4.7,1.5
			h-19.5V333c0,3.3,0.8,5.6,2.4,6.9c1.6,1.3,3.8,2,6.6,2c2.1,0,3.9,0.7,5.3,2c1.4,1.3,2.1,3.1,2.1,5.5v11.5c0,2.1-0.7,3.9-2,5.1
			S1755.6,367.8,1753.4,367.8z"/>
		<path class="st1" d="M1826.3,205.8c2.6-3.3,5.4-6.2,8.4-8.8c3-2.6,6.3-4.7,10-6.5c3.7-1.8,7.9-3.1,12.5-4.1
			c4.7-0.9,10.1-1.4,16.3-1.4c10.5,0,20,2,28.7,6c8.6,4,16.1,9.4,22.3,16.3c6.2,6.9,11,14.9,14.4,24.2c3.4,9.3,5.1,19.2,5.1,29.7
			v95.2c0,3.2-0.8,5.6-2.5,7.2c-1.6,1.6-3.7,2.4-6.2,2.4H1925c-3.5,0-5.7-0.7-6.7-2.1c-1-1.4-1.5-3.7-1.5-7v-95.6
			c0-5.6-1-11.3-2.9-17.2c-1.9-5.8-4.8-11.1-8.6-15.9c-3.8-4.8-8.5-8.6-14.2-11.6c-5.7-3-12.2-4.5-19.6-4.5c-5.3,0-10.7,1-16.1,2.9
			c-5.4,1.9-10.3,4.7-14.6,8.5c-4.3,3.7-7.9,8.4-10.6,13.9c-2.7,5.5-4.1,11.8-4.1,18.9v103.6c0,4.1-2.1,6.2-6.2,6.2h-14.4
			c-4.4,0-6.6-2.1-6.6-6.2V141c0-1.9,0.6-3.4,1.8-4.5s2.7-1.7,4.3-1.7h14.6c2,0,3.5,0.6,4.7,1.8c1.2,1.2,1.8,2.7,1.8,4.3V205.8z"/>
	</g>
	<path class="st2" d="M225.5,211.9H85.7c-24.8,0-45,20.1-45,45c0,24.8,20.1,45,45,45h139.8c24.8,0,45-20.1,45-45
		C270.5,232.1,250.4,211.9,225.5,211.9z"/>
	<path class="st1" d="M419.2,72.1L419.2,72.1c-24.8,0-45,20.1-45,45v269.8c0,24.8,20.1,45,45,45h0c24.8,0,45-20.1,45-45V117.1
		C464.2,92.2,444.1,72.1,419.2,72.1z"/>
	<path class="st2" d="M362.5,211.9h-137c-24.8,0-45,20.1-45,45c0,24.8,20.1,45,45,45h137c24.8,0,45-20.1,45-45
		C407.5,232.1,387.4,211.9,362.5,211.9z"/>
	<path class="st0" d="M225.5,72.1L225.5,72.1c-24.8,0-45,20.1-45,45v269.8c0,24.8,20.1,45,45,45h0c24.8,0,45-20.1,45-45V117
		C270.5,92.2,250.4,72.1,225.5,72.1z"/>
</g>
</svg>
