<?xml version="1.0" encoding="iso-8859-1"?>
<!-- Uploaded to: SVG Repo, www.svgrepo.com, Transformed by: SVG Repo Mixer Tools -->
<svg height="800px" width="800px" version="1.1" id="Layer_1" xmlns="http://www.w3.org/2000/svg" xmlns:xlink="http://www.w3.org/1999/xlink" 
	 viewBox="0 0 512 512" xml:space="preserve">
<path style="fill:#414042;" d="M312.779,512H203.32c-2.281,0-4.13-1.849-4.13-4.13v-59.816v-13.976h117.718v73.792
	C316.909,510.15,315.06,512,312.779,512z"/>
<path style="fill:#2F2F30;" d="M199.191,434.078v13.978h64.942c19.642,0,35.566,15.923,35.566,35.566V512h13.08
	c2.281,0,4.13-1.849,4.13-4.13v-73.792H199.191z"/>
<path style="fill:#ED4850;" d="M312.809,435.582H199.191c-8.008,0-14.779-5.929-15.835-13.867L129.621,18.084
	C128.346,8.507,135.795,0,145.456,0h221.087c9.66,0,17.111,8.507,15.835,18.084l-53.734,403.631
	C327.589,429.652,320.817,435.582,312.809,435.582z"/>
<path style="fill:#2F2F30;" d="M225.033,512c0-16.323,14.415-29.556,32.197-29.556c17.782,0,32.197,13.232,32.197,29.556"/>
<path style="fill:#E0273D;" d="M366.535,0H145.464c-9.665,0-17.118,8.511-15.841,18.091l0.942,7.081
	c1.058,7.941,7.83,13.873,15.841,13.873h124.759c41.016,0,72.647,36.121,67.234,76.779l-40.723,305.892
	c-1.056,7.939-7.828,13.867-15.835,13.867h30.961c8.011,0,14.785-5.932,15.841-13.873l50.943-382.663v-0.001l0,0l2.79-20.953
	C383.653,8.511,376.2,0,366.535,0z"/>
<g>
	<path style="fill:#F2BA43;" d="M322.032,167.521l8.633-64.591c0.452-3.381-2.178-6.385-5.588-6.385H186.295
		c-3.426,0-6.061,3.031-5.583,6.425l9.104,64.591c0.393,2.783,2.773,4.851,5.583,4.851h121.045
		C319.268,172.411,321.658,170.321,322.032,167.521z"/>
	<path style="fill:#F2BA43;" d="M197.802,224.216l20.429,144.931c0.393,2.783,2.773,4.851,5.583,4.851h65.685
		c2.825,0,5.214-2.091,5.588-4.891l19.372-144.931c0.452-3.381-2.178-6.385-5.588-6.385H203.385
		C199.958,217.791,197.324,220.822,197.802,224.216z"/>
</g>
</svg>